ISO-10303-21;
HEADER;
/* Generated by software containing ST-Developer
 * from STEP Tools, Inc. (www.steptools.com) 
 */

FILE_DESCRIPTION(
/* description */ (''),
/* implementation_level */ '2;1');

FILE_NAME(
/* name */ 'BOTTOM.step',
/* time_stamp */ '2026-08-26T18:37:45-04:00',
/* author */ (''),
/* organization */ (''),
/* preprocessor_version */ 'ST-DEVELOPER v20.1',
/* originating_system */ 'Autodesk Translation Framework v15.8.0.0',
/* authorisation */ '');

FILE_SCHEMA (('AUTOMOTIVE_DESIGN { 1 0 10303 214 3 1 1 }'));
ENDSEC;

DATA;
#10=MECHANICAL_DESIGN_GEOMETRIC_PRESENTATION_REPRESENTATION('',(#13),#1000);
#11=SHAPE_REPRESENTATION_RELATIONSHIP('SRR','None',#1007,#12);
#12=ADVANCED_BREP_SHAPE_REPRESENTATION('',(#14),#999);
#13=STYLED_ITEM('',(#1016),#14);
#14=MANIFOLD_SOLID_BREP('Body1',#570);
#15=FACE_BOUND('',#104,.T.);
#16=FACE_BOUND('',#105,.T.);
#17=FACE_BOUND('',#106,.T.);
#18=FACE_BOUND('',#107,.T.);
#19=FACE_BOUND('',#108,.T.);
#20=FACE_BOUND('',#114,.T.);
#21=FACE_BOUND('',#115,.T.);
#22=FACE_BOUND('',#116,.T.);
#23=FACE_BOUND('',#117,.T.);
#24=FACE_BOUND('',#127,.T.);
#25=CIRCLE('',#586,5.);
#26=CIRCLE('',#587,5.);
#27=CIRCLE('',#589,5.);
#28=CIRCLE('',#592,5.);
#29=CIRCLE('',#598,2.35);
#30=CIRCLE('',#599,2.35);
#31=CIRCLE('',#601,1.);
#32=CIRCLE('',#602,1.);
#33=CIRCLE('',#603,3.);
#34=CIRCLE('',#604,3.);
#35=CIRCLE('',#605,2.35);
#36=CIRCLE('',#606,2.34999999999999);
#37=CIRCLE('',#607,2.35);
#38=CIRCLE('',#608,2.35);
#39=CIRCLE('',#609,2.35);
#40=CIRCLE('',#611,1.);
#41=CIRCLE('',#614,1.);
#42=CIRCLE('',#617,3.);
#43=CIRCLE('',#618,3.);
#44=CIRCLE('',#619,2.35);
#45=CIRCLE('',#620,2.35);
#46=CIRCLE('',#621,2.35);
#47=CIRCLE('',#622,2.35);
#48=CIRCLE('',#623,2.34999999999999);
#49=PLANE('',#585);
#50=PLANE('',#590);
#51=PLANE('',#593);
#52=PLANE('',#595);
#53=PLANE('',#596);
#54=PLANE('',#600);
#55=PLANE('',#612);
#56=PLANE('',#615);
#57=PLANE('',#616);
#58=PLANE('',#625);
#59=PLANE('',#630);
#60=PLANE('',#631);
#61=PLANE('',#632);
#62=PLANE('',#633);
#63=PLANE('',#636);
#64=FACE_OUTER_BOUND('',#93,.T.);
#65=FACE_OUTER_BOUND('',#94,.T.);
#66=FACE_OUTER_BOUND('',#95,.T.);
#67=FACE_OUTER_BOUND('',#96,.T.);
#68=FACE_OUTER_BOUND('',#97,.T.);
#69=FACE_OUTER_BOUND('',#98,.T.);
#70=FACE_OUTER_BOUND('',#99,.T.);
#71=FACE_OUTER_BOUND('',#100,.T.);
#72=FACE_OUTER_BOUND('',#101,.T.);
#73=FACE_OUTER_BOUND('',#102,.T.);
#74=FACE_OUTER_BOUND('',#103,.T.);
#75=FACE_OUTER_BOUND('',#109,.T.);
#76=FACE_OUTER_BOUND('',#110,.T.);
#77=FACE_OUTER_BOUND('',#111,.T.);
#78=FACE_OUTER_BOUND('',#112,.T.);
#79=FACE_OUTER_BOUND('',#113,.T.);
#80=FACE_OUTER_BOUND('',#118,.T.);
#81=FACE_OUTER_BOUND('',#119,.T.);
#82=FACE_OUTER_BOUND('',#120,.T.);
#83=FACE_OUTER_BOUND('',#121,.T.);
#84=FACE_OUTER_BOUND('',#122,.T.);
#85=FACE_OUTER_BOUND('',#123,.T.);
#86=FACE_OUTER_BOUND('',#124,.T.);
#87=FACE_OUTER_BOUND('',#125,.T.);
#88=FACE_OUTER_BOUND('',#126,.T.);
#89=FACE_OUTER_BOUND('',#128,.T.);
#90=FACE_OUTER_BOUND('',#129,.T.);
#91=FACE_OUTER_BOUND('',#130,.T.);
#92=FACE_OUTER_BOUND('',#131,.T.);
#93=EDGE_LOOP('',(#369,#370,#371,#372));
#94=EDGE_LOOP('',(#373,#374,#375,#376,#377,#378));
#95=EDGE_LOOP('',(#379,#380,#381,#382,#383,#384));
#96=EDGE_LOOP('',(#385,#386,#387,#388,#389,#390,#391,#392));
#97=EDGE_LOOP('',(#393,#394,#395,#396,#397,#398));
#98=EDGE_LOOP('',(#399,#400,#401,#402));
#99=EDGE_LOOP('',(#403,#404,#405,#406));
#100=EDGE_LOOP('',(#407,#408,#409,#410));
#101=EDGE_LOOP('',(#411,#412,#413,#414,#415,#416));
#102=EDGE_LOOP('',(#417,#418,#419,#420));
#103=EDGE_LOOP('',(#421,#422,#423,#424,#425,#426,#427,#428));
#104=EDGE_LOOP('',(#429,#430));
#105=EDGE_LOOP('',(#431));
#106=EDGE_LOOP('',(#432));
#107=EDGE_LOOP('',(#433,#434));
#108=EDGE_LOOP('',(#435,#436,#437,#438));
#109=EDGE_LOOP('',(#439,#440,#441,#442));
#110=EDGE_LOOP('',(#443,#444,#445,#446));
#111=EDGE_LOOP('',(#447,#448,#449,#450));
#112=EDGE_LOOP('',(#451,#452,#453,#454));
#113=EDGE_LOOP('',(#455,#456,#457,#458,#459,#460,#461,#462,#463,#464));
#114=EDGE_LOOP('',(#465,#466));
#115=EDGE_LOOP('',(#467));
#116=EDGE_LOOP('',(#468));
#117=EDGE_LOOP('',(#469,#470));
#118=EDGE_LOOP('',(#471,#472,#473,#474));
#119=EDGE_LOOP('',(#475,#476,#477,#478));
#120=EDGE_LOOP('',(#479,#480,#481,#482));
#121=EDGE_LOOP('',(#483,#484,#485,#486));
#122=EDGE_LOOP('',(#487,#488,#489,#490));
#123=EDGE_LOOP('',(#491,#492,#493,#494));
#124=EDGE_LOOP('',(#495,#496,#497,#498));
#125=EDGE_LOOP('',(#499,#500,#501,#502));
#126=EDGE_LOOP('',(#503,#504,#505,#506));
#127=EDGE_LOOP('',(#507,#508,#509,#510));
#128=EDGE_LOOP('',(#511,#512,#513,#514));
#129=EDGE_LOOP('',(#515,#516,#517,#518));
#130=EDGE_LOOP('',(#519,#520,#521,#522));
#131=EDGE_LOOP('',(#523,#524,#525,#526));
#132=LINE('',#809,#183);
#133=LINE('',#819,#184);
#134=LINE('',#824,#185);
#135=LINE('',#826,#186);
#136=LINE('',#828,#187);
#137=LINE('',#834,#188);
#138=LINE('',#836,#189);
#139=LINE('',#853,#190);
#140=LINE('',#855,#191);
#141=LINE('',#857,#192);
#142=LINE('',#859,#193);
#143=LINE('',#861,#194);
#144=LINE('',#862,#195);
#145=LINE('',#880,#196);
#146=LINE('',#884,#197);
#147=LINE('',#885,#198);
#148=LINE('',#887,#199);
#149=LINE('',#888,#200);
#150=LINE('',#891,#201);
#151=LINE('',#892,#202);
#152=LINE('',#894,#203);
#153=LINE('',#900,#204);
#154=LINE('',#903,#205);
#155=LINE('',#910,#206);
#156=LINE('',#914,#207);
#157=LINE('',#917,#208);
#158=LINE('',#929,#209);
#159=LINE('',#931,#210);
#160=LINE('',#933,#211);
#161=LINE('',#934,#212);
#162=LINE('',#937,#213);
#163=LINE('',#941,#214);
#164=LINE('',#942,#215);
#165=LINE('',#946,#216);
#166=LINE('',#949,#217);
#167=LINE('',#950,#218);
#168=LINE('',#955,#219);
#169=LINE('',#967,#220);
#170=LINE('',#969,#221);
#171=LINE('',#972,#222);
#172=LINE('',#973,#223);
#173=LINE('',#975,#224);
#174=LINE('',#977,#225);
#175=LINE('',#981,#226);
#176=LINE('',#982,#227);
#177=LINE('',#983,#228);
#178=LINE('',#986,#229);
#179=LINE('',#987,#230);
#180=LINE('',#990,#231);
#181=LINE('',#991,#232);
#182=LINE('',#993,#233);
#183=VECTOR('',#641,10.);
#184=VECTOR('',#642,10.);
#185=VECTOR('',#647,10.);
#186=VECTOR('',#648,10.);
#187=VECTOR('',#649,10.);
#188=VECTOR('',#656,10.);
#189=VECTOR('',#657,10.);
#190=VECTOR('',#660,10.);
#191=VECTOR('',#661,10.);
#192=VECTOR('',#662,10.);
#193=VECTOR('',#663,10.);
#194=VECTOR('',#664,10.);
#195=VECTOR('',#665,10.);
#196=VECTOR('',#668,10.);
#197=VECTOR('',#673,10.);
#198=VECTOR('',#674,10.);
#199=VECTOR('',#677,10.);
#200=VECTOR('',#678,10.);
#201=VECTOR('',#681,10.);
#202=VECTOR('',#682,10.);
#203=VECTOR('',#685,10.);
#204=VECTOR('',#690,10.);
#205=VECTOR('',#693,10.);
#206=VECTOR('',#700,10.);
#207=VECTOR('',#703,10.);
#208=VECTOR('',#706,10.);
#209=VECTOR('',#717,10.);
#210=VECTOR('',#718,10.);
#211=VECTOR('',#719,10.);
#212=VECTOR('',#720,10.);
#213=VECTOR('',#723,10.);
#214=VECTOR('',#728,10.);
#215=VECTOR('',#729,10.);
#216=VECTOR('',#734,10.);
#217=VECTOR('',#737,10.);
#218=VECTOR('',#738,10.);
#219=VECTOR('',#743,10.);
#220=VECTOR('',#758,10.);
#221=VECTOR('',#761,10.);
#222=VECTOR('',#766,10.);
#223=VECTOR('',#767,10.);
#224=VECTOR('',#770,2.35);
#225=VECTOR('',#773,2.35);
#226=VECTOR('',#776,10.);
#227=VECTOR('',#777,10.);
#228=VECTOR('',#778,10.);
#229=VECTOR('',#781,10.);
#230=VECTOR('',#782,10.);
#231=VECTOR('',#785,10.);
#232=VECTOR('',#786,10.);
#233=VECTOR('',#789,10.);
#234=B_SPLINE_CURVE_WITH_KNOTS('',3,(#800,#801,#802,#803,#804,#805,#806,
#807),.UNSPECIFIED.,.F.,.F.,(4,2,2,4),(1.12516567301288,1.25150254153299,
1.37783941005311,1.63051314709333),.UNSPECIFIED.);
#235=B_SPLINE_CURVE_WITH_KNOTS('',3,(#811,#812,#813,#814,#815,#816,#817,
#818),.UNSPECIFIED.,.F.,.F.,(4,2,2,4),(0.,0.252673737040227,0.37901060556034,
0.505347474080453),.UNSPECIFIED.);
#236=B_SPLINE_CURVE_WITH_KNOTS('',3,(#837,#838,#839,#840,#841,#842,#843,
#844,#845,#846,#847,#848,#849,#850),.UNSPECIFIED.,.F.,.F.,(4,2,2,2,2,2,
4),(4.16031912666113,4.21592600099151,4.40400721098864,4.59208842098576,
4.78813630062262,4.88616024044105,4.98418418025947),.UNSPECIFIED.);
#237=B_SPLINE_CURVE_WITH_KNOTS('',3,(#865,#866,#867,#868,#869,#870,#871,
#872,#873,#874,#875,#876,#877,#878),.UNSPECIFIED.,.F.,.F.,(4,2,2,2,2,2,
4),(1.66139472675316,1.75941866657159,1.85744260639001,2.05349048602687,
2.241571696024,2.42965290602112,2.48525978035051),.UNSPECIFIED.);
#238=VERTEX_POINT('',#798);
#239=VERTEX_POINT('',#799);
#240=VERTEX_POINT('',#808);
#241=VERTEX_POINT('',#810);
#242=VERTEX_POINT('',#821);
#243=VERTEX_POINT('',#823);
#244=VERTEX_POINT('',#825);
#245=VERTEX_POINT('',#827);
#246=VERTEX_POINT('',#831);
#247=VERTEX_POINT('',#832);
#248=VERTEX_POINT('',#835);
#249=VERTEX_POINT('',#852);
#250=VERTEX_POINT('',#854);
#251=VERTEX_POINT('',#856);
#252=VERTEX_POINT('',#858);
#253=VERTEX_POINT('',#860);
#254=VERTEX_POINT('',#864);
#255=VERTEX_POINT('',#879);
#256=VERTEX_POINT('',#883);
#257=VERTEX_POINT('',#890);
#258=VERTEX_POINT('',#896);
#259=VERTEX_POINT('',#897);
#260=VERTEX_POINT('',#899);
#261=VERTEX_POINT('',#901);
#262=VERTEX_POINT('',#905);
#263=VERTEX_POINT('',#907);
#264=VERTEX_POINT('',#909);
#265=VERTEX_POINT('',#911);
#266=VERTEX_POINT('',#913);
#267=VERTEX_POINT('',#915);
#268=VERTEX_POINT('',#918);
#269=VERTEX_POINT('',#919);
#270=VERTEX_POINT('',#922);
#271=VERTEX_POINT('',#924);
#272=VERTEX_POINT('',#927);
#273=VERTEX_POINT('',#928);
#274=VERTEX_POINT('',#930);
#275=VERTEX_POINT('',#932);
#276=VERTEX_POINT('',#936);
#277=VERTEX_POINT('',#940);
#278=VERTEX_POINT('',#944);
#279=VERTEX_POINT('',#948);
#280=VERTEX_POINT('',#952);
#281=VERTEX_POINT('',#954);
#282=VERTEX_POINT('',#958);
#283=VERTEX_POINT('',#960);
#284=VERTEX_POINT('',#962);
#285=VERTEX_POINT('',#963);
#286=VERTEX_POINT('',#979);
#287=VERTEX_POINT('',#980);
#288=VERTEX_POINT('',#985);
#289=VERTEX_POINT('',#989);
#290=EDGE_CURVE('',#238,#239,#234,.F.);
#291=EDGE_CURVE('',#239,#240,#132,.T.);
#292=EDGE_CURVE('',#240,#241,#235,.F.);
#293=EDGE_CURVE('',#241,#238,#133,.T.);
#294=EDGE_CURVE('',#242,#239,#25,.F.);
#295=EDGE_CURVE('',#242,#243,#134,.T.);
#296=EDGE_CURVE('',#244,#243,#135,.T.);
#297=EDGE_CURVE('',#245,#244,#136,.T.);
#298=EDGE_CURVE('',#240,#245,#26,.F.);
#299=EDGE_CURVE('',#246,#247,#27,.F.);
#300=EDGE_CURVE('',#247,#242,#137,.T.);
#301=EDGE_CURVE('',#238,#248,#138,.T.);
#302=EDGE_CURVE('',#248,#246,#236,.F.);
#303=EDGE_CURVE('',#249,#241,#139,.T.);
#304=EDGE_CURVE('',#250,#249,#140,.T.);
#305=EDGE_CURVE('',#251,#250,#141,.T.);
#306=EDGE_CURVE('',#252,#251,#142,.T.);
#307=EDGE_CURVE('',#253,#252,#143,.T.);
#308=EDGE_CURVE('',#248,#253,#144,.T.);
#309=EDGE_CURVE('',#249,#254,#237,.T.);
#310=EDGE_CURVE('',#245,#255,#145,.T.);
#311=EDGE_CURVE('',#254,#255,#28,.T.);
#312=EDGE_CURVE('',#256,#244,#146,.T.);
#313=EDGE_CURVE('',#255,#256,#147,.T.);
#314=EDGE_CURVE('',#254,#246,#148,.T.);
#315=EDGE_CURVE('',#249,#248,#149,.T.);
#316=EDGE_CURVE('',#247,#257,#150,.T.);
#317=EDGE_CURVE('',#243,#257,#151,.T.);
#318=EDGE_CURVE('',#257,#256,#152,.T.);
#319=EDGE_CURVE('',#258,#259,#29,.T.);
#320=EDGE_CURVE('',#260,#258,#153,.T.);
#321=EDGE_CURVE('',#261,#260,#30,.T.);
#322=EDGE_CURVE('',#259,#261,#154,.T.);
#323=EDGE_CURVE('',#252,#262,#31,.T.);
#324=EDGE_CURVE('',#263,#251,#32,.T.);
#325=EDGE_CURVE('',#263,#264,#155,.T.);
#326=EDGE_CURVE('',#265,#264,#33,.T.);
#327=EDGE_CURVE('',#265,#266,#156,.T.);
#328=EDGE_CURVE('',#267,#266,#34,.T.);
#329=EDGE_CURVE('',#267,#262,#157,.T.);
#330=EDGE_CURVE('',#268,#269,#35,.T.);
#331=EDGE_CURVE('',#269,#268,#36,.T.);
#332=EDGE_CURVE('',#270,#270,#37,.T.);
#333=EDGE_CURVE('',#271,#271,#38,.T.);
#334=EDGE_CURVE('',#260,#261,#39,.T.);
#335=EDGE_CURVE('',#272,#273,#158,.T.);
#336=EDGE_CURVE('',#273,#274,#159,.T.);
#337=EDGE_CURVE('',#274,#275,#160,.T.);
#338=EDGE_CURVE('',#275,#272,#161,.T.);
#339=EDGE_CURVE('',#262,#276,#162,.T.);
#340=EDGE_CURVE('',#276,#253,#40,.T.);
#341=EDGE_CURVE('',#277,#267,#163,.T.);
#342=EDGE_CURVE('',#276,#277,#164,.T.);
#343=EDGE_CURVE('',#250,#278,#41,.T.);
#344=EDGE_CURVE('',#278,#263,#165,.T.);
#345=EDGE_CURVE('',#279,#278,#166,.T.);
#346=EDGE_CURVE('',#264,#279,#167,.T.);
#347=EDGE_CURVE('',#280,#277,#42,.T.);
#348=EDGE_CURVE('',#280,#281,#168,.T.);
#349=EDGE_CURVE('',#279,#281,#43,.T.);
#350=EDGE_CURVE('',#258,#259,#44,.T.);
#351=EDGE_CURVE('',#282,#282,#45,.T.);
#352=EDGE_CURVE('',#283,#283,#46,.T.);
#353=EDGE_CURVE('',#284,#285,#47,.T.);
#354=EDGE_CURVE('',#284,#285,#48,.T.);
#355=EDGE_CURVE('',#281,#265,#169,.T.);
#356=EDGE_CURVE('',#266,#280,#170,.T.);
#357=EDGE_CURVE('',#285,#268,#171,.T.);
#358=EDGE_CURVE('',#269,#284,#172,.T.);
#359=EDGE_CURVE('',#270,#282,#173,.T.);
#360=EDGE_CURVE('',#271,#283,#174,.T.);
#361=EDGE_CURVE('',#286,#287,#175,.T.);
#362=EDGE_CURVE('',#286,#275,#176,.T.);
#363=EDGE_CURVE('',#287,#274,#177,.T.);
#364=EDGE_CURVE('',#288,#286,#178,.T.);
#365=EDGE_CURVE('',#288,#272,#179,.T.);
#366=EDGE_CURVE('',#287,#289,#180,.T.);
#367=EDGE_CURVE('',#289,#273,#181,.T.);
#368=EDGE_CURVE('',#289,#288,#182,.T.);
#369=ORIENTED_EDGE('',*,*,#290,.T.);
#370=ORIENTED_EDGE('',*,*,#291,.T.);
#371=ORIENTED_EDGE('',*,*,#292,.T.);
#372=ORIENTED_EDGE('',*,*,#293,.T.);
#373=ORIENTED_EDGE('',*,*,#291,.F.);
#374=ORIENTED_EDGE('',*,*,#294,.F.);
#375=ORIENTED_EDGE('',*,*,#295,.T.);
#376=ORIENTED_EDGE('',*,*,#296,.F.);
#377=ORIENTED_EDGE('',*,*,#297,.F.);
#378=ORIENTED_EDGE('',*,*,#298,.F.);
#379=ORIENTED_EDGE('',*,*,#299,.T.);
#380=ORIENTED_EDGE('',*,*,#300,.T.);
#381=ORIENTED_EDGE('',*,*,#294,.T.);
#382=ORIENTED_EDGE('',*,*,#290,.F.);
#383=ORIENTED_EDGE('',*,*,#301,.T.);
#384=ORIENTED_EDGE('',*,*,#302,.T.);
#385=ORIENTED_EDGE('',*,*,#303,.F.);
#386=ORIENTED_EDGE('',*,*,#304,.F.);
#387=ORIENTED_EDGE('',*,*,#305,.F.);
#388=ORIENTED_EDGE('',*,*,#306,.F.);
#389=ORIENTED_EDGE('',*,*,#307,.F.);
#390=ORIENTED_EDGE('',*,*,#308,.F.);
#391=ORIENTED_EDGE('',*,*,#301,.F.);
#392=ORIENTED_EDGE('',*,*,#293,.F.);
#393=ORIENTED_EDGE('',*,*,#309,.F.);
#394=ORIENTED_EDGE('',*,*,#303,.T.);
#395=ORIENTED_EDGE('',*,*,#292,.F.);
#396=ORIENTED_EDGE('',*,*,#298,.T.);
#397=ORIENTED_EDGE('',*,*,#310,.T.);
#398=ORIENTED_EDGE('',*,*,#311,.F.);
#399=ORIENTED_EDGE('',*,*,#310,.F.);
#400=ORIENTED_EDGE('',*,*,#297,.T.);
#401=ORIENTED_EDGE('',*,*,#312,.F.);
#402=ORIENTED_EDGE('',*,*,#313,.F.);
#403=ORIENTED_EDGE('',*,*,#314,.T.);
#404=ORIENTED_EDGE('',*,*,#302,.F.);
#405=ORIENTED_EDGE('',*,*,#315,.F.);
#406=ORIENTED_EDGE('',*,*,#309,.T.);
#407=ORIENTED_EDGE('',*,*,#300,.F.);
#408=ORIENTED_EDGE('',*,*,#316,.T.);
#409=ORIENTED_EDGE('',*,*,#317,.F.);
#410=ORIENTED_EDGE('',*,*,#295,.F.);
#411=ORIENTED_EDGE('',*,*,#314,.F.);
#412=ORIENTED_EDGE('',*,*,#311,.T.);
#413=ORIENTED_EDGE('',*,*,#313,.T.);
#414=ORIENTED_EDGE('',*,*,#318,.F.);
#415=ORIENTED_EDGE('',*,*,#316,.F.);
#416=ORIENTED_EDGE('',*,*,#299,.F.);
#417=ORIENTED_EDGE('',*,*,#319,.F.);
#418=ORIENTED_EDGE('',*,*,#320,.F.);
#419=ORIENTED_EDGE('',*,*,#321,.F.);
#420=ORIENTED_EDGE('',*,*,#322,.F.);
#421=ORIENTED_EDGE('',*,*,#323,.F.);
#422=ORIENTED_EDGE('',*,*,#306,.T.);
#423=ORIENTED_EDGE('',*,*,#324,.F.);
#424=ORIENTED_EDGE('',*,*,#325,.T.);
#425=ORIENTED_EDGE('',*,*,#326,.F.);
#426=ORIENTED_EDGE('',*,*,#327,.T.);
#427=ORIENTED_EDGE('',*,*,#328,.F.);
#428=ORIENTED_EDGE('',*,*,#329,.T.);
#429=ORIENTED_EDGE('',*,*,#330,.T.);
#430=ORIENTED_EDGE('',*,*,#331,.T.);
#431=ORIENTED_EDGE('',*,*,#332,.T.);
#432=ORIENTED_EDGE('',*,*,#333,.T.);
#433=ORIENTED_EDGE('',*,*,#321,.T.);
#434=ORIENTED_EDGE('',*,*,#334,.T.);
#435=ORIENTED_EDGE('',*,*,#335,.T.);
#436=ORIENTED_EDGE('',*,*,#336,.T.);
#437=ORIENTED_EDGE('',*,*,#337,.T.);
#438=ORIENTED_EDGE('',*,*,#338,.T.);
#439=ORIENTED_EDGE('',*,*,#323,.T.);
#440=ORIENTED_EDGE('',*,*,#339,.T.);
#441=ORIENTED_EDGE('',*,*,#340,.T.);
#442=ORIENTED_EDGE('',*,*,#307,.T.);
#443=ORIENTED_EDGE('',*,*,#339,.F.);
#444=ORIENTED_EDGE('',*,*,#329,.F.);
#445=ORIENTED_EDGE('',*,*,#341,.F.);
#446=ORIENTED_EDGE('',*,*,#342,.F.);
#447=ORIENTED_EDGE('',*,*,#324,.T.);
#448=ORIENTED_EDGE('',*,*,#305,.T.);
#449=ORIENTED_EDGE('',*,*,#343,.T.);
#450=ORIENTED_EDGE('',*,*,#344,.T.);
#451=ORIENTED_EDGE('',*,*,#344,.F.);
#452=ORIENTED_EDGE('',*,*,#345,.F.);
#453=ORIENTED_EDGE('',*,*,#346,.F.);
#454=ORIENTED_EDGE('',*,*,#325,.F.);
#455=ORIENTED_EDGE('',*,*,#340,.F.);
#456=ORIENTED_EDGE('',*,*,#342,.T.);
#457=ORIENTED_EDGE('',*,*,#347,.F.);
#458=ORIENTED_EDGE('',*,*,#348,.T.);
#459=ORIENTED_EDGE('',*,*,#349,.F.);
#460=ORIENTED_EDGE('',*,*,#345,.T.);
#461=ORIENTED_EDGE('',*,*,#343,.F.);
#462=ORIENTED_EDGE('',*,*,#304,.T.);
#463=ORIENTED_EDGE('',*,*,#315,.T.);
#464=ORIENTED_EDGE('',*,*,#308,.T.);
#465=ORIENTED_EDGE('',*,*,#319,.T.);
#466=ORIENTED_EDGE('',*,*,#350,.F.);
#467=ORIENTED_EDGE('',*,*,#351,.T.);
#468=ORIENTED_EDGE('',*,*,#352,.T.);
#469=ORIENTED_EDGE('',*,*,#353,.T.);
#470=ORIENTED_EDGE('',*,*,#354,.F.);
#471=ORIENTED_EDGE('',*,*,#326,.T.);
#472=ORIENTED_EDGE('',*,*,#346,.T.);
#473=ORIENTED_EDGE('',*,*,#349,.T.);
#474=ORIENTED_EDGE('',*,*,#355,.T.);
#475=ORIENTED_EDGE('',*,*,#355,.F.);
#476=ORIENTED_EDGE('',*,*,#348,.F.);
#477=ORIENTED_EDGE('',*,*,#356,.F.);
#478=ORIENTED_EDGE('',*,*,#327,.F.);
#479=ORIENTED_EDGE('',*,*,#328,.T.);
#480=ORIENTED_EDGE('',*,*,#356,.T.);
#481=ORIENTED_EDGE('',*,*,#347,.T.);
#482=ORIENTED_EDGE('',*,*,#341,.T.);
#483=ORIENTED_EDGE('',*,*,#330,.F.);
#484=ORIENTED_EDGE('',*,*,#357,.F.);
#485=ORIENTED_EDGE('',*,*,#353,.F.);
#486=ORIENTED_EDGE('',*,*,#358,.F.);
#487=ORIENTED_EDGE('',*,*,#332,.F.);
#488=ORIENTED_EDGE('',*,*,#359,.T.);
#489=ORIENTED_EDGE('',*,*,#351,.F.);
#490=ORIENTED_EDGE('',*,*,#359,.F.);
#491=ORIENTED_EDGE('',*,*,#333,.F.);
#492=ORIENTED_EDGE('',*,*,#360,.T.);
#493=ORIENTED_EDGE('',*,*,#352,.F.);
#494=ORIENTED_EDGE('',*,*,#360,.F.);
#495=ORIENTED_EDGE('',*,*,#361,.F.);
#496=ORIENTED_EDGE('',*,*,#362,.T.);
#497=ORIENTED_EDGE('',*,*,#337,.F.);
#498=ORIENTED_EDGE('',*,*,#363,.F.);
#499=ORIENTED_EDGE('',*,*,#364,.F.);
#500=ORIENTED_EDGE('',*,*,#365,.T.);
#501=ORIENTED_EDGE('',*,*,#338,.F.);
#502=ORIENTED_EDGE('',*,*,#362,.F.);
#503=ORIENTED_EDGE('',*,*,#366,.F.);
#504=ORIENTED_EDGE('',*,*,#363,.T.);
#505=ORIENTED_EDGE('',*,*,#336,.F.);
#506=ORIENTED_EDGE('',*,*,#367,.F.);
#507=ORIENTED_EDGE('',*,*,#312,.T.);
#508=ORIENTED_EDGE('',*,*,#296,.T.);
#509=ORIENTED_EDGE('',*,*,#317,.T.);
#510=ORIENTED_EDGE('',*,*,#318,.T.);
#511=ORIENTED_EDGE('',*,*,#368,.F.);
#512=ORIENTED_EDGE('',*,*,#367,.T.);
#513=ORIENTED_EDGE('',*,*,#335,.F.);
#514=ORIENTED_EDGE('',*,*,#365,.F.);
#515=ORIENTED_EDGE('',*,*,#358,.T.);
#516=ORIENTED_EDGE('',*,*,#354,.T.);
#517=ORIENTED_EDGE('',*,*,#357,.T.);
#518=ORIENTED_EDGE('',*,*,#331,.F.);
#519=ORIENTED_EDGE('',*,*,#322,.T.);
#520=ORIENTED_EDGE('',*,*,#334,.F.);
#521=ORIENTED_EDGE('',*,*,#320,.T.);
#522=ORIENTED_EDGE('',*,*,#350,.T.);
#523=ORIENTED_EDGE('',*,*,#364,.T.);
#524=ORIENTED_EDGE('',*,*,#361,.T.);
#525=ORIENTED_EDGE('',*,*,#366,.T.);
#526=ORIENTED_EDGE('',*,*,#368,.T.);
#527=CYLINDRICAL_SURFACE('',#584,2.);
#528=CYLINDRICAL_SURFACE('',#588,5.);
#529=CYLINDRICAL_SURFACE('',#591,5.);
#530=CYLINDRICAL_SURFACE('',#594,5.);
#531=CYLINDRICAL_SURFACE('',#597,2.35);
#532=CYLINDRICAL_SURFACE('',#610,1.);
#533=CYLINDRICAL_SURFACE('',#613,1.);
#534=CYLINDRICAL_SURFACE('',#624,3.);
#535=CYLINDRICAL_SURFACE('',#626,3.);
#536=CYLINDRICAL_SURFACE('',#627,2.35);
#537=CYLINDRICAL_SURFACE('',#628,2.35);
#538=CYLINDRICAL_SURFACE('',#629,2.35);
#539=CYLINDRICAL_SURFACE('',#634,2.34999999999999);
#540=CYLINDRICAL_SURFACE('',#635,2.35);
#541=ADVANCED_FACE('',(#64),#527,.T.);
#542=ADVANCED_FACE('',(#65),#49,.F.);
#543=ADVANCED_FACE('',(#66),#528,.T.);
#544=ADVANCED_FACE('',(#67),#50,.T.);
#545=ADVANCED_FACE('',(#68),#529,.T.);
#546=ADVANCED_FACE('',(#69),#51,.F.);
#547=ADVANCED_FACE('',(#70),#530,.T.);
#548=ADVANCED_FACE('',(#71),#52,.F.);
#549=ADVANCED_FACE('',(#72),#53,.F.);
#550=ADVANCED_FACE('',(#73),#531,.F.);
#551=ADVANCED_FACE('',(#74,#15,#16,#17,#18,#19),#54,.T.);
#552=ADVANCED_FACE('',(#75),#532,.T.);
#553=ADVANCED_FACE('',(#76),#55,.T.);
#554=ADVANCED_FACE('',(#77),#533,.T.);
#555=ADVANCED_FACE('',(#78),#56,.T.);
#556=ADVANCED_FACE('',(#79,#20,#21,#22,#23),#57,.F.);
#557=ADVANCED_FACE('',(#80),#534,.T.);
#558=ADVANCED_FACE('',(#81),#58,.T.);
#559=ADVANCED_FACE('',(#82),#535,.T.);
#560=ADVANCED_FACE('',(#83),#536,.F.);
#561=ADVANCED_FACE('',(#84),#537,.F.);
#562=ADVANCED_FACE('',(#85),#538,.F.);
#563=ADVANCED_FACE('',(#86),#59,.T.);
#564=ADVANCED_FACE('',(#87),#60,.T.);
#565=ADVANCED_FACE('',(#88,#24),#61,.T.);
#566=ADVANCED_FACE('',(#89),#62,.T.);
#567=ADVANCED_FACE('',(#90),#539,.F.);
#568=ADVANCED_FACE('',(#91),#540,.F.);
#569=ADVANCED_FACE('',(#92),#63,.T.);
#570=CLOSED_SHELL('',(#541,#542,#543,#544,#545,#546,#547,#548,#549,#550,
#551,#552,#553,#554,#555,#556,#557,#558,#559,#560,#561,#562,#563,#564,#565,
#566,#567,#568,#569));
#571=DERIVED_UNIT_ELEMENT(#573,1.);
#572=DERIVED_UNIT_ELEMENT(#1002,-3.);
#573=(
MASS_UNIT()
NAMED_UNIT(*)
SI_UNIT(.KILO.,.GRAM.)
);
#574=DERIVED_UNIT((#571,#572));
#575=MEASURE_REPRESENTATION_ITEM('density measure',
POSITIVE_RATIO_MEASURE(7850.),#574);
#576=PROPERTY_DEFINITION_REPRESENTATION(#581,#578);
#577=PROPERTY_DEFINITION_REPRESENTATION(#582,#579);
#578=REPRESENTATION('material name',(#580),#999);
#579=REPRESENTATION('density',(#575),#999);
#580=DESCRIPTIVE_REPRESENTATION_ITEM('Steel','Steel');
#581=PROPERTY_DEFINITION('material property','material name',#1009);
#582=PROPERTY_DEFINITION('material property','density of part',#1009);
#583=AXIS2_PLACEMENT_3D('',#796,#637,#638);
#584=AXIS2_PLACEMENT_3D('',#797,#639,#640);
#585=AXIS2_PLACEMENT_3D('',#820,#643,#644);
#586=AXIS2_PLACEMENT_3D('',#822,#645,#646);
#587=AXIS2_PLACEMENT_3D('',#829,#650,#651);
#588=AXIS2_PLACEMENT_3D('',#830,#652,#653);
#589=AXIS2_PLACEMENT_3D('',#833,#654,#655);
#590=AXIS2_PLACEMENT_3D('',#851,#658,#659);
#591=AXIS2_PLACEMENT_3D('',#863,#666,#667);
#592=AXIS2_PLACEMENT_3D('',#881,#669,#670);
#593=AXIS2_PLACEMENT_3D('',#882,#671,#672);
#594=AXIS2_PLACEMENT_3D('',#886,#675,#676);
#595=AXIS2_PLACEMENT_3D('',#889,#679,#680);
#596=AXIS2_PLACEMENT_3D('',#893,#683,#684);
#597=AXIS2_PLACEMENT_3D('',#895,#686,#687);
#598=AXIS2_PLACEMENT_3D('',#898,#688,#689);
#599=AXIS2_PLACEMENT_3D('',#902,#691,#692);
#600=AXIS2_PLACEMENT_3D('',#904,#694,#695);
#601=AXIS2_PLACEMENT_3D('',#906,#696,#697);
#602=AXIS2_PLACEMENT_3D('',#908,#698,#699);
#603=AXIS2_PLACEMENT_3D('',#912,#701,#702);
#604=AXIS2_PLACEMENT_3D('',#916,#704,#705);
#605=AXIS2_PLACEMENT_3D('',#920,#707,#708);
#606=AXIS2_PLACEMENT_3D('',#921,#709,#710);
#607=AXIS2_PLACEMENT_3D('',#923,#711,#712);
#608=AXIS2_PLACEMENT_3D('',#925,#713,#714);
#609=AXIS2_PLACEMENT_3D('',#926,#715,#716);
#610=AXIS2_PLACEMENT_3D('',#935,#721,#722);
#611=AXIS2_PLACEMENT_3D('',#938,#724,#725);
#612=AXIS2_PLACEMENT_3D('',#939,#726,#727);
#613=AXIS2_PLACEMENT_3D('',#943,#730,#731);
#614=AXIS2_PLACEMENT_3D('',#945,#732,#733);
#615=AXIS2_PLACEMENT_3D('',#947,#735,#736);
#616=AXIS2_PLACEMENT_3D('',#951,#739,#740);
#617=AXIS2_PLACEMENT_3D('',#953,#741,#742);
#618=AXIS2_PLACEMENT_3D('',#956,#744,#745);
#619=AXIS2_PLACEMENT_3D('',#957,#746,#747);
#620=AXIS2_PLACEMENT_3D('',#959,#748,#749);
#621=AXIS2_PLACEMENT_3D('',#961,#750,#751);
#622=AXIS2_PLACEMENT_3D('',#964,#752,#753);
#623=AXIS2_PLACEMENT_3D('',#965,#754,#755);
#624=AXIS2_PLACEMENT_3D('',#966,#756,#757);
#625=AXIS2_PLACEMENT_3D('',#968,#759,#760);
#626=AXIS2_PLACEMENT_3D('',#970,#762,#763);
#627=AXIS2_PLACEMENT_3D('',#971,#764,#765);
#628=AXIS2_PLACEMENT_3D('',#974,#768,#769);
#629=AXIS2_PLACEMENT_3D('',#976,#771,#772);
#630=AXIS2_PLACEMENT_3D('',#978,#774,#775);
#631=AXIS2_PLACEMENT_3D('',#984,#779,#780);
#632=AXIS2_PLACEMENT_3D('',#988,#783,#784);
#633=AXIS2_PLACEMENT_3D('',#992,#787,#788);
#634=AXIS2_PLACEMENT_3D('',#994,#790,#791);
#635=AXIS2_PLACEMENT_3D('',#995,#792,#793);
#636=AXIS2_PLACEMENT_3D('',#996,#794,#795);
#637=DIRECTION('axis',(0.,0.,1.));
#638=DIRECTION('refdir',(1.,0.,0.));
#639=DIRECTION('center_axis',(-1.,0.,0.));
#640=DIRECTION('ref_axis',(0.,0.707106781186546,-0.707106781186549));
#641=DIRECTION('',(-1.,0.,0.));
#642=DIRECTION('',(1.,0.,0.));
#643=DIRECTION('center_axis',(0.,0.,1.));
#644=DIRECTION('ref_axis',(-1.,0.,0.));
#645=DIRECTION('center_axis',(0.,0.,1.));
#646=DIRECTION('ref_axis',(-0.707106781186547,0.707106781186547,0.));
#647=DIRECTION('',(0.,-1.,0.));
#648=DIRECTION('',(1.,0.,0.));
#649=DIRECTION('',(0.,-1.,0.));
#650=DIRECTION('center_axis',(0.,0.,1.));
#651=DIRECTION('ref_axis',(0.707106781186547,0.707106781186547,0.));
#652=DIRECTION('center_axis',(0.,0.,1.));
#653=DIRECTION('ref_axis',(-0.707106781186547,0.707106781186547,0.));
#654=DIRECTION('center_axis',(0.,0.,-1.));
#655=DIRECTION('ref_axis',(-0.707106781186547,0.707106781186547,0.));
#656=DIRECTION('',(0.,0.,1.));
#657=DIRECTION('',(0.,0.,-1.));
#658=DIRECTION('center_axis',(0.,1.,0.));
#659=DIRECTION('ref_axis',(-1.,0.,0.));
#660=DIRECTION('',(0.,0.,1.));
#661=DIRECTION('',(1.,0.,0.));
#662=DIRECTION('',(0.,0.,-1.));
#663=DIRECTION('',(-1.,0.,0.));
#664=DIRECTION('',(0.,0.,1.));
#665=DIRECTION('',(1.,0.,0.));
#666=DIRECTION('center_axis',(0.,0.,-1.));
#667=DIRECTION('ref_axis',(0.707106781186547,0.707106781186547,0.));
#668=DIRECTION('',(0.,0.,-1.));
#669=DIRECTION('center_axis',(0.,0.,-1.));
#670=DIRECTION('ref_axis',(0.707106781186547,0.707106781186547,0.));
#671=DIRECTION('center_axis',(-1.,0.,0.));
#672=DIRECTION('ref_axis',(0.,0.,-1.));
#673=DIRECTION('',(0.,0.,1.));
#674=DIRECTION('',(0.,-1.,0.));
#675=DIRECTION('center_axis',(1.,0.,0.));
#676=DIRECTION('ref_axis',(0.,0.943375341370909,0.331727245328629));
#677=DIRECTION('',(1.,0.,0.));
#678=DIRECTION('',(1.,0.,0.));
#679=DIRECTION('center_axis',(1.,0.,0.));
#680=DIRECTION('ref_axis',(0.,0.,1.));
#681=DIRECTION('',(0.,-1.,0.));
#682=DIRECTION('',(0.,0.,-1.));
#683=DIRECTION('center_axis',(0.,0.,-1.));
#684=DIRECTION('ref_axis',(1.,0.,0.));
#685=DIRECTION('',(-1.,0.,0.));
#686=DIRECTION('center_axis',(0.,0.,-1.));
#687=DIRECTION('ref_axis',(-0.99486949262502,-0.101166657768436,0.));
#688=DIRECTION('center_axis',(0.,0.,1.));
#689=DIRECTION('ref_axis',(1.,0.,0.));
#690=DIRECTION('',(0.,0.,-1.));
#691=DIRECTION('center_axis',(0.,0.,-1.));
#692=DIRECTION('ref_axis',(1.,0.,0.));
#693=DIRECTION('',(0.,0.,1.));
#694=DIRECTION('center_axis',(0.,0.,1.));
#695=DIRECTION('ref_axis',(1.,0.,0.));
#696=DIRECTION('center_axis',(0.,0.,-1.));
#697=DIRECTION('ref_axis',(0.70710678118656,0.707106781186535,0.));
#698=DIRECTION('center_axis',(0.,0.,-1.));
#699=DIRECTION('ref_axis',(-0.707106781186541,0.707106781186554,0.));
#700=DIRECTION('',(0.,-1.,0.));
#701=DIRECTION('center_axis',(0.,0.,-1.));
#702=DIRECTION('ref_axis',(-0.707106781186547,-0.707106781186548,0.));
#703=DIRECTION('',(1.,0.,0.));
#704=DIRECTION('center_axis',(0.,0.,-1.));
#705=DIRECTION('ref_axis',(0.707106781186548,-0.707106781186547,0.));
#706=DIRECTION('',(0.,1.,0.));
#707=DIRECTION('center_axis',(0.,0.,-1.));
#708=DIRECTION('ref_axis',(1.,0.,0.));
#709=DIRECTION('center_axis',(0.,0.,-1.));
#710=DIRECTION('ref_axis',(1.,0.,0.));
#711=DIRECTION('center_axis',(0.,0.,-1.));
#712=DIRECTION('ref_axis',(1.,0.,0.));
#713=DIRECTION('center_axis',(0.,0.,-1.));
#714=DIRECTION('ref_axis',(1.,0.,0.));
#715=DIRECTION('center_axis',(0.,0.,-1.));
#716=DIRECTION('ref_axis',(1.,0.,0.));
#717=DIRECTION('',(-5.50520611426261E-19,1.,0.));
#718=DIRECTION('',(1.,0.,0.));
#719=DIRECTION('',(0.,-1.,0.));
#720=DIRECTION('',(-1.,0.,0.));
#721=DIRECTION('center_axis',(0.,0.,1.));
#722=DIRECTION('ref_axis',(0.70710678118656,0.707106781186535,0.));
#723=DIRECTION('',(0.,0.,-1.));
#724=DIRECTION('center_axis',(0.,0.,1.));
#725=DIRECTION('ref_axis',(0.70710678118656,0.707106781186535,0.));
#726=DIRECTION('center_axis',(1.,0.,0.));
#727=DIRECTION('ref_axis',(0.,1.,0.));
#728=DIRECTION('',(0.,0.,1.));
#729=DIRECTION('',(0.,-1.,0.));
#730=DIRECTION('center_axis',(0.,0.,1.));
#731=DIRECTION('ref_axis',(-0.707106781186541,0.707106781186554,0.));
#732=DIRECTION('center_axis',(0.,0.,1.));
#733=DIRECTION('ref_axis',(-0.707106781186541,0.707106781186554,0.));
#734=DIRECTION('',(0.,0.,1.));
#735=DIRECTION('center_axis',(-1.,0.,0.));
#736=DIRECTION('ref_axis',(0.,-1.,0.));
#737=DIRECTION('',(0.,1.,0.));
#738=DIRECTION('',(0.,0.,-1.));
#739=DIRECTION('center_axis',(0.,0.,1.));
#740=DIRECTION('ref_axis',(1.,0.,0.));
#741=DIRECTION('center_axis',(0.,0.,1.));
#742=DIRECTION('ref_axis',(0.707106781186548,-0.707106781186547,0.));
#743=DIRECTION('',(-1.,0.,0.));
#744=DIRECTION('center_axis',(0.,0.,1.));
#745=DIRECTION('ref_axis',(-0.707106781186547,-0.707106781186548,0.));
#746=DIRECTION('center_axis',(0.,0.,-1.));
#747=DIRECTION('ref_axis',(1.,0.,0.));
#748=DIRECTION('center_axis',(0.,0.,1.));
#749=DIRECTION('ref_axis',(1.,0.,0.));
#750=DIRECTION('center_axis',(0.,0.,1.));
#751=DIRECTION('ref_axis',(1.,0.,0.));
#752=DIRECTION('center_axis',(0.,0.,1.));
#753=DIRECTION('ref_axis',(1.,0.,0.));
#754=DIRECTION('center_axis',(0.,0.,-1.));
#755=DIRECTION('ref_axis',(1.,0.,0.));
#756=DIRECTION('center_axis',(0.,0.,1.));
#757=DIRECTION('ref_axis',(-0.707106781186547,-0.707106781186548,0.));
#758=DIRECTION('',(0.,0.,1.));
#759=DIRECTION('center_axis',(0.,-1.,0.));
#760=DIRECTION('ref_axis',(1.,0.,0.));
#761=DIRECTION('',(0.,0.,-1.));
#762=DIRECTION('center_axis',(0.,0.,1.));
#763=DIRECTION('ref_axis',(0.707106781186548,-0.707106781186547,0.));
#764=DIRECTION('center_axis',(0.,0.,-1.));
#765=DIRECTION('ref_axis',(1.,0.,0.));
#766=DIRECTION('',(0.,0.,1.));
#767=DIRECTION('',(0.,0.,-1.));
#768=DIRECTION('center_axis',(0.,0.,-1.));
#769=DIRECTION('ref_axis',(1.,0.,0.));
#770=DIRECTION('',(0.,0.,-1.));
#771=DIRECTION('center_axis',(0.,0.,-1.));
#772=DIRECTION('ref_axis',(1.,0.,0.));
#773=DIRECTION('',(0.,0.,-1.));
#774=DIRECTION('center_axis',(-1.,0.,0.));
#775=DIRECTION('ref_axis',(0.,-1.,0.));
#776=DIRECTION('',(0.,1.,0.));
#777=DIRECTION('',(0.,0.,1.));
#778=DIRECTION('',(0.,0.,1.));
#779=DIRECTION('center_axis',(0.,1.,0.));
#780=DIRECTION('ref_axis',(-1.,0.,0.));
#781=DIRECTION('',(1.,0.,0.));
#782=DIRECTION('',(0.,0.,1.));
#783=DIRECTION('center_axis',(0.,-1.,0.));
#784=DIRECTION('ref_axis',(1.,0.,0.));
#785=DIRECTION('',(-1.,0.,0.));
#786=DIRECTION('',(0.,0.,1.));
#787=DIRECTION('center_axis',(1.,5.50520611426261E-19,0.));
#788=DIRECTION('ref_axis',(-5.50520611426261E-19,1.,0.));
#789=DIRECTION('',(5.50520611426261E-19,-1.,0.));
#790=DIRECTION('center_axis',(0.,0.,1.));
#791=DIRECTION('ref_axis',(-0.515509333183541,-0.856883963790116,0.));
#792=DIRECTION('center_axis',(0.,0.,1.));
#793=DIRECTION('ref_axis',(1.,0.,0.));
#794=DIRECTION('center_axis',(0.,0.,1.));
#795=DIRECTION('ref_axis',(1.,0.,0.));
#796=CARTESIAN_POINT('',(0.,0.,0.));
#797=CARTESIAN_POINT('Origin',(104.490276190831,84.9834436990706,7.));
#798=CARTESIAN_POINT('',(100.023934358928,86.9834436990706,7.));
#799=CARTESIAN_POINT('',(96.0239343589285,84.9834436990706,5.));
#800=CARTESIAN_POINT('Ctrl Pts',(96.0239343589285,84.9834436990706,5.));
#801=CARTESIAN_POINT('Ctrl Pts',(96.2766080959688,85.3203420151242,5.));
#802=CARTESIAN_POINT('Ctrl Pts',(96.5602085307798,85.6111641485777,5.08067174389551));
#803=CARTESIAN_POINT('Ctrl Pts',(97.1763770821281,86.1125077360104,5.32576341486685));
#804=CARTESIAN_POINT('Ctrl Pts',(97.5088424566055,86.3220648117947,5.49240829921632));
#805=CARTESIAN_POINT('Ctrl Pts',(98.5534858744381,86.8244032717176,6.06729123918534));
#806=CARTESIAN_POINT('Ctrl Pts',(99.3121067458695,86.9834436990706,6.5498006882665));
#807=CARTESIAN_POINT('Ctrl Pts',(100.023934358928,86.9834436990706,7.));
#808=CARTESIAN_POINT('',(82.050285348346,84.9834436990706,5.));
#809=CARTESIAN_POINT('',(104.490276190831,84.9834436990706,5.));
#810=CARTESIAN_POINT('',(78.0502853483461,86.9834436990706,7.));
#811=CARTESIAN_POINT('Ctrl Pts',(78.0502853483461,86.9834436990706,7.));
#812=CARTESIAN_POINT('Ctrl Pts',(78.7621129614051,86.9834436990706,6.5498006882665));
#813=CARTESIAN_POINT('Ctrl Pts',(79.5207338328365,86.8244032717176,6.06729123918534));
#814=CARTESIAN_POINT('Ctrl Pts',(80.565377250669,86.3220648117947,5.49240829921633));
#815=CARTESIAN_POINT('Ctrl Pts',(80.8978426251464,86.1125077360104,5.32576341486685));
#816=CARTESIAN_POINT('Ctrl Pts',(81.5140111764947,85.6111641485777,5.0806717438955));
#817=CARTESIAN_POINT('Ctrl Pts',(81.7976116113058,85.3203420151242,5.));
#818=CARTESIAN_POINT('Ctrl Pts',(82.050285348346,84.9834436990706,5.));
#819=CARTESIAN_POINT('',(104.490276190831,86.9834436990706,7.));
#820=CARTESIAN_POINT('Origin',(95.0239343589285,86.9834436990706,5.));
#821=CARTESIAN_POINT('',(95.0239343589285,81.9834436990706,5.));
#822=CARTESIAN_POINT('Origin',(100.023934358928,81.9834436990706,5.));
#823=CARTESIAN_POINT('',(95.0239343589285,76.9834436990706,5.));
#824=CARTESIAN_POINT('',(95.0239343589285,86.9834436990706,5.));
#825=CARTESIAN_POINT('',(83.0502853483461,76.9834436990706,5.));
#826=CARTESIAN_POINT('',(52.390276190831,76.9834436990706,5.));
#827=CARTESIAN_POINT('',(83.0502853483461,81.9834436990706,5.));
#828=CARTESIAN_POINT('',(83.0502853483461,86.9834436990706,5.));
#829=CARTESIAN_POINT('Origin',(78.0502853483461,81.9834436990706,5.));
#830=CARTESIAN_POINT('Origin',(100.023934358928,81.9834436990706,-3.32931811332157));
#831=CARTESIAN_POINT('',(95.0319566745955,82.2665669922161,-1.65863622664315));
#832=CARTESIAN_POINT('',(95.0239343589285,81.9834436990706,-1.65863622664315));
#833=CARTESIAN_POINT('Origin',(100.023934358928,81.9834436990706,-1.65863622664315));
#834=CARTESIAN_POINT('',(95.0239343589285,81.9834436990706,-3.32931811332157));
#835=CARTESIAN_POINT('',(100.023934358928,86.9834436990706,-5.));
#836=CARTESIAN_POINT('',(100.023934358928,86.9834436990706,-3.32931811332157));
#837=CARTESIAN_POINT('Ctrl Pts',(95.0319566745949,82.2665669922058,-1.65863622664314));
#838=CARTESIAN_POINT('Ctrl Pts',(95.0427039856286,82.456061598081,-1.65863622664276));
#839=CARTESIAN_POINT('Ctrl Pts',(95.0642243478372,82.6431537327635,-1.66949016498962));
#840=CARTESIAN_POINT('Ctrl Pts',(95.2000726306385,83.4390009436312,-1.75889585300692));
#841=CARTESIAN_POINT('Ctrl Pts',(95.4267623662403,84.0410364976755,-1.94766562976844));
#842=CARTESIAN_POINT('Ctrl Pts',(96.051851428329,85.0802538784751,-2.48429192053695));
#843=CARTESIAN_POINT('Ctrl Pts',(96.4492946489847,85.5186691874354,-2.83087152845985));
#844=CARTESIAN_POINT('Ctrl Pts',(97.2791535503233,86.1984065479968,-3.53000890734897));
#845=CARTESIAN_POINT('Ctrl Pts',(97.7752332307725,86.4844480217796,-3.94236166462735));
#846=CARTESIAN_POINT('Ctrl Pts',(98.5663909553454,86.7745197387268,-4.48594873444562));
#847=CARTESIAN_POINT('Ctrl Pts',(98.8366290333009,86.8489319056593,-4.65336057500324));
#848=CARTESIAN_POINT('Ctrl Pts',(99.4021792816816,86.9529593287197,-4.9102284817004));
#849=CARTESIAN_POINT('Ctrl Pts',(99.697187892867,86.9834436990706,-5.));
#850=CARTESIAN_POINT('Ctrl Pts',(100.023934358928,86.9834436990706,-5.));
#851=CARTESIAN_POINT('Origin',(113.956618022734,86.9834436990706,-5.));
#852=CARTESIAN_POINT('',(78.0502853483461,86.9834436990706,-5.));
#853=CARTESIAN_POINT('',(78.0502853483461,86.9834436990706,0.));
#854=CARTESIAN_POINT('',(0.75661802273352,86.9834436990706,-5.));
#855=CARTESIAN_POINT('',(-0.243381977266477,86.9834436990706,-5.));
#856=CARTESIAN_POINT('',(0.75661802273352,86.9834436990706,8.));
#857=CARTESIAN_POINT('',(0.75661802273352,86.9834436990706,-5.));
#858=CARTESIAN_POINT('',(112.956618022734,86.9834436990706,8.));
#859=CARTESIAN_POINT('',(-0.243381977266477,86.9834436990706,8.));
#860=CARTESIAN_POINT('',(112.956618022734,86.9834436990706,-5.));
#861=CARTESIAN_POINT('',(112.956618022734,86.9834436990706,-5.));
#862=CARTESIAN_POINT('',(-0.243381977266477,86.9834436990706,-5.));
#863=CARTESIAN_POINT('Origin',(78.0502853483461,81.9834436990706,0.));
#864=CARTESIAN_POINT('',(83.042263032679,82.2665669922161,-1.65863622664315));
#865=CARTESIAN_POINT('Ctrl Pts',(78.0502853483461,86.9834436990706,-5.));
#866=CARTESIAN_POINT('Ctrl Pts',(78.3770318144075,86.9834436990706,-5.));
#867=CARTESIAN_POINT('Ctrl Pts',(78.672040425593,86.9529593287197,-4.9102284817004));
#868=CARTESIAN_POINT('Ctrl Pts',(79.2375906739736,86.8489319056593,-4.65336057500323));
#869=CARTESIAN_POINT('Ctrl Pts',(79.5078287519291,86.7745197387269,-4.48594873444561));
#870=CARTESIAN_POINT('Ctrl Pts',(80.298986476502,86.4844480217797,-3.94236166462734));
#871=CARTESIAN_POINT('Ctrl Pts',(80.7950661569513,86.1984065479968,-3.53000890734897));
#872=CARTESIAN_POINT('Ctrl Pts',(81.6249250582898,85.5186691874354,-2.83087152845985));
#873=CARTESIAN_POINT('Ctrl Pts',(82.0223682789456,85.0802538784751,-2.48429192053695));
#874=CARTESIAN_POINT('Ctrl Pts',(82.6474573410343,84.0410364976755,-1.94766562976844));
#875=CARTESIAN_POINT('Ctrl Pts',(82.8741470766361,83.4390009436312,-1.75889585300692));
#876=CARTESIAN_POINT('Ctrl Pts',(83.0099953594368,82.6431537327668,-1.66949016498998));
#877=CARTESIAN_POINT('Ctrl Pts',(83.0315157216452,82.4560615980877,-1.65863622664314));
#878=CARTESIAN_POINT('Ctrl Pts',(83.042263032679,82.2665669922161,-1.65863622664314));
#879=CARTESIAN_POINT('',(83.0502853483461,81.9834436990706,-1.65863622664315));
#880=CARTESIAN_POINT('',(83.0502853483461,81.9834436990706,0.));
#881=CARTESIAN_POINT('Origin',(78.0502853483461,81.9834436990706,-1.65863622664315));
#882=CARTESIAN_POINT('Origin',(83.0502853483461,86.9834436990706,5.));
#883=CARTESIAN_POINT('',(83.0502853483461,76.9834436990706,-1.65863622664315));
#884=CARTESIAN_POINT('',(83.0502853483461,76.9834436990706,0.));
#885=CARTESIAN_POINT('',(83.0502853483461,86.9834436990706,-1.65863622664315));
#886=CARTESIAN_POINT('Origin',(-0.243381977266477,82.266566992216,-6.65863622664315));
#887=CARTESIAN_POINT('',(-0.243381977266477,82.266566992216,-1.65863622664315));
#888=CARTESIAN_POINT('',(-0.243381977266477,86.9834436990706,-5.));
#889=CARTESIAN_POINT('Origin',(95.0239343589285,86.9834436990706,-1.65863622664315));
#890=CARTESIAN_POINT('',(95.0239343589285,76.9834436990706,-1.65863622664315));
#891=CARTESIAN_POINT('',(95.0239343589285,86.9834436990706,-1.65863622664315));
#892=CARTESIAN_POINT('',(95.0239343589285,76.9834436990706,-3.32931811332157));
#893=CARTESIAN_POINT('Origin',(83.0502853483461,86.9834436990706,-1.65863622664315));
#894=CARTESIAN_POINT('',(46.4034516855398,76.9834436990706,-1.65863622664315));
#895=CARTESIAN_POINT('Origin',(4.74937925547132,5.1870095279862,-21.5));
#896=CARTESIAN_POINT('',(4.51525727823662,7.52531808328332,-5.));
#897=CARTESIAN_POINT('',(4.99073999996878,2.84943707113793,-5.));
#898=CARTESIAN_POINT('Origin',(4.74937925547132,5.1870095279862,-5.));
#899=CARTESIAN_POINT('',(4.51525727823662,7.52531808328332,8.));
#900=CARTESIAN_POINT('',(4.51525727823662,7.52531808328332,-21.5));
#901=CARTESIAN_POINT('',(4.99073999996878,2.84943707113793,8.));
#902=CARTESIAN_POINT('Origin',(4.74937925547132,5.1870095279862,8.));
#903=CARTESIAN_POINT('',(4.99073999996878,2.84943707113793,-21.5));
#904=CARTESIAN_POINT('Origin',(56.8566180227335,43.4093504034354,8.));
#905=CARTESIAN_POINT('',(113.956618022734,85.9834436990706,8.));
#906=CARTESIAN_POINT('Origin',(112.956618022734,85.9834436990706,8.));
#907=CARTESIAN_POINT('',(-0.243381977266477,85.9834436990706,8.));
#908=CARTESIAN_POINT('Origin',(0.75661802273352,85.9834436990706,8.));
#909=CARTESIAN_POINT('',(-0.243381977266477,2.83525710780023,8.));
#910=CARTESIAN_POINT('',(-0.243381977266477,-0.16474289219977,8.));
#911=CARTESIAN_POINT('',(2.75661802273353,-0.16474289219977,8.));
#912=CARTESIAN_POINT('Origin',(2.75661802273352,2.83525710780023,8.));
#913=CARTESIAN_POINT('',(110.956618022734,-0.16474289219977,8.));
#914=CARTESIAN_POINT('',(113.956618022734,-0.16474289219977,8.));
#915=CARTESIAN_POINT('',(113.956618022734,2.83525710780022,8.));
#916=CARTESIAN_POINT('Origin',(110.956618022734,2.83525710780023,8.));
#917=CARTESIAN_POINT('',(113.956618022734,86.9834436990706,8.));
#918=CARTESIAN_POINT('',(107.780266189785,6.45917530691379,8.));
#919=CARTESIAN_POINT('',(111.805800899573,4.03737632170361,8.));
#920=CARTESIAN_POINT('Origin',(109.829449066625,5.30880600218256,8.));
#921=CARTESIAN_POINT('Origin',(109.756618022734,5.187745626435,8.));
#922=CARTESIAN_POINT('',(107.597152956916,83.6041371094855,8.));
#923=CARTESIAN_POINT('Origin',(109.947152956916,83.6041371094855,8.));
#924=CARTESIAN_POINT('',(2.38124187698447,83.8613114050706,8.));
#925=CARTESIAN_POINT('Origin',(4.73124187698447,83.8613114050706,8.));
#926=CARTESIAN_POINT('Origin',(4.75661802273352,5.187745626435,8.));
#927=CARTESIAN_POINT('',(9.75661802273352,9.83525710780023,8.));
#928=CARTESIAN_POINT('',(9.75661802273352,76.9834436990706,8.));
#929=CARTESIAN_POINT('',(9.75661802273352,76.9834436990706,8.));
#930=CARTESIAN_POINT('',(103.956618022734,76.9834436990706,8.));
#931=CARTESIAN_POINT('',(103.956618022734,76.9834436990706,8.));
#932=CARTESIAN_POINT('',(103.956618022734,9.83525710780023,8.));
#933=CARTESIAN_POINT('',(103.956618022734,9.83525710780023,8.));
#934=CARTESIAN_POINT('',(9.75661802273352,9.83525710780023,8.));
#935=CARTESIAN_POINT('Origin',(112.956618022734,85.9834436990706,-5.));
#936=CARTESIAN_POINT('',(113.956618022734,85.9834436990706,-5.));
#937=CARTESIAN_POINT('',(113.956618022734,85.9834436990706,-5.));
#938=CARTESIAN_POINT('Origin',(112.956618022734,85.9834436990706,-5.));
#939=CARTESIAN_POINT('Origin',(113.956618022734,-0.16474289219977,-5.));
#940=CARTESIAN_POINT('',(113.956618022734,2.83525710780022,-5.));
#941=CARTESIAN_POINT('',(113.956618022734,2.83525710780023,-5.));
#942=CARTESIAN_POINT('',(113.956618022734,86.9834436990706,-5.));
#943=CARTESIAN_POINT('Origin',(0.75661802273352,85.9834436990706,-5.));
#944=CARTESIAN_POINT('',(-0.243381977266477,85.9834436990706,-5.));
#945=CARTESIAN_POINT('Origin',(0.75661802273352,85.9834436990706,-5.));
#946=CARTESIAN_POINT('',(-0.243381977266477,85.9834436990706,-5.));
#947=CARTESIAN_POINT('Origin',(-0.243381977266477,86.9834436990706,-5.));
#948=CARTESIAN_POINT('',(-0.243381977266477,2.83525710780023,-5.));
#949=CARTESIAN_POINT('',(-0.243381977266477,-0.16474289219977,-5.));
#950=CARTESIAN_POINT('',(-0.243381977266477,2.83525710780023,-5.));
#951=CARTESIAN_POINT('Origin',(56.8566180227335,43.4093504034354,-5.));
#952=CARTESIAN_POINT('',(110.956618022734,-0.16474289219977,-5.));
#953=CARTESIAN_POINT('Origin',(110.956618022734,2.83525710780023,-5.));
#954=CARTESIAN_POINT('',(2.75661802273353,-0.16474289219977,-5.));
#955=CARTESIAN_POINT('',(113.956618022734,-0.16474289219977,-5.));
#956=CARTESIAN_POINT('Origin',(2.75661802273352,2.83525710780023,-5.));
#957=CARTESIAN_POINT('Origin',(4.75661802273352,5.187745626435,-5.));
#958=CARTESIAN_POINT('',(107.597152956916,83.6041371094855,-5.));
#959=CARTESIAN_POINT('Origin',(109.947152956916,83.6041371094855,-5.));
#960=CARTESIAN_POINT('',(2.38124187698447,83.8613114050706,-5.));
#961=CARTESIAN_POINT('Origin',(4.73124187698447,83.8613114050706,-5.));
#962=CARTESIAN_POINT('',(111.805800899573,4.03737632170361,-5.));
#963=CARTESIAN_POINT('',(107.780266189785,6.45917530691379,-5.));
#964=CARTESIAN_POINT('Origin',(109.829449066625,5.30880600218256,-5.));
#965=CARTESIAN_POINT('Origin',(109.756618022734,5.187745626435,-5.));
#966=CARTESIAN_POINT('Origin',(2.75661802273352,2.83525710780023,-5.));
#967=CARTESIAN_POINT('',(2.75661802273352,-0.16474289219977,-5.));
#968=CARTESIAN_POINT('Origin',(-0.243381977266477,-0.16474289219977,-5.));
#969=CARTESIAN_POINT('',(110.956618022734,-0.16474289219977,-5.));
#970=CARTESIAN_POINT('Origin',(110.956618022734,2.83525710780023,-5.));
#971=CARTESIAN_POINT('Origin',(109.829449066625,5.30880600218256,-21.5));
#972=CARTESIAN_POINT('',(107.780266189785,6.45917530691379,-21.5));
#973=CARTESIAN_POINT('',(111.805800899573,4.03737632170361,-21.5));
#974=CARTESIAN_POINT('Origin',(109.947152956916,83.6041371094855,-23.5));
#975=CARTESIAN_POINT('',(107.597152956916,83.6041371094855,-23.5));
#976=CARTESIAN_POINT('Origin',(4.73124187698447,83.8613114050706,-23.5));
#977=CARTESIAN_POINT('',(2.38124187698447,83.8613114050706,-23.5));
#978=CARTESIAN_POINT('Origin',(103.956618022734,76.9834436990706,-5.));
#979=CARTESIAN_POINT('',(103.956618022734,9.83525710780023,-2.));
#980=CARTESIAN_POINT('',(103.956618022734,76.9834436990706,-2.));
#981=CARTESIAN_POINT('',(103.956618022734,60.196397051253,-2.));
#982=CARTESIAN_POINT('',(103.956618022734,9.83525710780023,-5.));
#983=CARTESIAN_POINT('',(103.956618022734,76.9834436990706,-5.));
#984=CARTESIAN_POINT('Origin',(103.956618022734,9.83525710780023,-5.));
#985=CARTESIAN_POINT('',(9.75661802273352,9.83525710780023,-2.));
#986=CARTESIAN_POINT('',(80.4066180227335,9.83525710780023,-2.));
#987=CARTESIAN_POINT('',(9.75661802273352,9.83525710780023,-5.));
#988=CARTESIAN_POINT('Origin',(9.75661802273352,76.9834436990706,-5.));
#989=CARTESIAN_POINT('',(9.75661802273352,76.9834436990706,-2.));
#990=CARTESIAN_POINT('',(33.3066180227335,76.9834436990706,-2.));
#991=CARTESIAN_POINT('',(9.75661802273352,76.9834436990706,-5.));
#992=CARTESIAN_POINT('Origin',(9.75661802273352,9.83525710780023,-5.));
#993=CARTESIAN_POINT('',(9.75661802273352,26.6223037556178,-2.));
#994=CARTESIAN_POINT('Origin',(109.756618022734,5.187745626435,-5.));
#995=CARTESIAN_POINT('Origin',(4.75661802273352,5.187745626435,-5.));
#996=CARTESIAN_POINT('Origin',(56.8566180227335,43.4093504034354,-2.));
#997=UNCERTAINTY_MEASURE_WITH_UNIT(LENGTH_MEASURE(0.01),#1001,
'DISTANCE_ACCURACY_VALUE',
'Maximum model space distance between geometric entities at asserted c
onnectivities');
#998=UNCERTAINTY_MEASURE_WITH_UNIT(LENGTH_MEASURE(0.01),#1001,
'DISTANCE_ACCURACY_VALUE',
'Maximum model space distance between geometric entities at asserted c
onnectivities');
#999=(
GEOMETRIC_REPRESENTATION_CONTEXT(3)
GLOBAL_UNCERTAINTY_ASSIGNED_CONTEXT((#997))
GLOBAL_UNIT_ASSIGNED_CONTEXT((#1001,#1003,#1004))
REPRESENTATION_CONTEXT('','3D')
);
#1000=(
GEOMETRIC_REPRESENTATION_CONTEXT(3)
GLOBAL_UNCERTAINTY_ASSIGNED_CONTEXT((#998))
GLOBAL_UNIT_ASSIGNED_CONTEXT((#1001,#1003,#1004))
REPRESENTATION_CONTEXT('','3D')
);
#1001=(
LENGTH_UNIT()
NAMED_UNIT(*)
SI_UNIT(.MILLI.,.METRE.)
);
#1002=(
LENGTH_UNIT()
NAMED_UNIT(*)
SI_UNIT($,.METRE.)
);
#1003=(
NAMED_UNIT(*)
PLANE_ANGLE_UNIT()
SI_UNIT($,.RADIAN.)
);
#1004=(
NAMED_UNIT(*)
SI_UNIT($,.STERADIAN.)
SOLID_ANGLE_UNIT()
);
#1005=SHAPE_DEFINITION_REPRESENTATION(#1006,#1007);
#1006=PRODUCT_DEFINITION_SHAPE('',$,#1009);
#1007=SHAPE_REPRESENTATION('',(#583),#999);
#1008=PRODUCT_DEFINITION_CONTEXT('part definition',#1013,'design');
#1009=PRODUCT_DEFINITION('2026-08-12-19-11-13-156','Untitled',#1010,#1008);
#1010=PRODUCT_DEFINITION_FORMATION('',$,#1015);
#1011=PRODUCT_RELATED_PRODUCT_CATEGORY('Untitled','Untitled',(#1015));
#1012=APPLICATION_PROTOCOL_DEFINITION('international standard',
'automotive_design',2009,#1013);
#1013=APPLICATION_CONTEXT(
'Core Data for Automotive Mechanical Design Process');
#1014=PRODUCT_CONTEXT('part definition',#1013,'mechanical');
#1015=PRODUCT('2026-08-12-19-11-13-156','Untitled',$,(#1014));
#1016=PRESENTATION_STYLE_ASSIGNMENT((#1017));
#1017=SURFACE_STYLE_USAGE(.BOTH.,#1018);
#1018=SURFACE_SIDE_STYLE('',(#1019));
#1019=SURFACE_STYLE_FILL_AREA(#1020);
#1020=FILL_AREA_STYLE('Steel - Satin',(#1021));
#1021=FILL_AREA_STYLE_COLOUR('Steel - Satin',#1022);
#1022=COLOUR_RGB('Steel - Satin',0.627450980392157,0.627450980392157,0.627450980392157);
ENDSEC;
END-ISO-10303-21;
